<svg xmlns="http://www.w3.org/2000/svg" fill="none" viewBox="0 0 195 32">
<g clip-path="url(#clip0_1_9)">
<mask id="mask0_1_9" style="mask-type:luminance" maskUnits="userSpaceOnUse" x="0" y="0" width="195" height="32">
<path d="M194.041 0H0V31.4251H194.041V0Z" fill="white"/>
</mask>
<g mask="url(#mask0_1_9)">
<path d="M46.7616 15.0793C46.5699 14.1576 45.746 13.4008 44.3644 13.4008C43.1323 13.4008 42.1628 13.9603 42.1723 14.8187C42.1628 15.5105 42.6571 15.9684 43.9908 16.2558L46.5853 16.779C49.3656 17.3538 50.7184 18.5878 50.728 20.6592C50.728 23.4875 48.0588 25.3806 44.3453 25.3806C40.6317 25.3806 38.2135 23.6925 37.8418 20.9485L41.7527 20.7435C41.9941 21.9105 42.9369 22.516 44.3548 22.516C45.7728 22.516 46.6696 21.9105 46.6868 21.0616C46.6696 20.343 46.1005 19.8851 44.8492 19.634L42.3678 19.1397C39.5683 18.5802 38.2154 17.189 38.225 15.0429C38.2154 12.2817 40.6317 10.584 44.2993 10.584C47.9668 10.584 50.0478 12.2166 50.4004 14.857L46.7616 15.0793Z" fill="#121212"/>
<path d="M60.8667 13.7628H58.1688V20.6993C58.1688 21.7992 58.7206 22.0981 59.5101 22.0981C59.8435 22.0847 60.175 22.0406 60.5008 21.9678L61.1254 24.9264C60.4279 25.1525 59.7017 25.2771 58.9697 25.2981C56.0955 25.4208 54.1793 24.0296 54.1927 21.2224V13.7628H52.2363V10.7717H54.1947V7.33789H58.1688V10.7717H60.8667V13.7628Z" fill="#121212"/>
<path d="M63.4531 10.7713H67.2989V13.2623H67.4483C67.9714 11.4898 69.2859 10.5566 70.8974 10.5566C71.319 10.5586 71.7386 10.6065 72.1487 10.6965V14.2223C71.6007 14.0805 71.0354 14.0096 70.4682 14.0096C68.7149 14.0096 67.4273 15.2206 67.4273 16.9854V25.0927H63.4531V10.7713Z" fill="#121212"/>
<path d="M72.9492 18.0015C72.9492 13.579 75.6817 10.584 79.8992 10.584C83.6874 10.584 86.6364 12.9907 86.6364 17.8654V18.9576H76.8812C76.8812 21.0942 78.1401 22.4067 80.1272 22.4067C81.4532 22.4067 82.4783 21.8319 82.8788 20.7454L86.5559 20.9869C85.9964 23.6465 83.6069 25.373 80.062 25.373C75.6453 25.3806 72.9492 22.5447 72.9492 18.0015ZM82.8941 16.4896C82.8845 14.7823 81.6908 13.5502 79.9643 13.5502C78.3049 13.5176 76.9291 14.8302 76.8812 16.4896H82.8941Z" fill="#121212"/>
<path d="M88.5684 21.0981C88.5684 17.8981 91.1149 16.9458 93.9528 16.6909C96.4438 16.4476 97.423 16.3268 97.423 15.4033V15.3477C97.423 14.1712 96.6565 13.4909 95.296 13.4909C93.8685 13.4909 93.0196 14.1903 92.7475 15.1427L89.0723 14.8437C89.6223 12.232 91.8814 10.5898 95.3152 10.5898C98.5056 10.5898 101.397 12.027 101.397 15.4397V25.1067H97.6223V23.1139H97.5111C96.8117 24.4552 95.4397 25.3731 93.3205 25.3731C90.588 25.3731 88.5684 23.934 88.5684 21.0981ZM97.4517 19.9791V18.4576C96.9746 18.7757 95.5566 18.9807 94.6886 19.1015C93.2898 19.2931 92.3662 19.8488 92.3662 20.9678C92.3662 22.0868 93.2419 22.6291 94.474 22.6291C96.2043 22.6291 97.446 21.4813 97.446 19.9791H97.4517Z" fill="#121212"/>
<path d="M104.486 10.7699H108.275V13.2973H108.443C109.039 11.6091 110.505 10.584 112.437 10.584C114.368 10.584 115.868 11.6379 116.326 13.2973H116.476C117.064 11.6551 118.697 10.584 120.795 10.584C123.464 10.584 125.311 12.3564 125.311 15.4625V25.1009H121.347V16.252C121.347 14.6578 120.389 13.8645 119.126 13.8645C117.679 13.8645 116.826 14.8724 116.826 16.3555V25.1066H112.977V16.1639C112.977 14.7536 112.099 13.8645 110.794 13.8645C109.489 13.8645 108.46 14.9184 108.46 16.5049V25.1066H104.486V10.7699Z" fill="#121212"/>
<path d="M136.163 13.7626H133.318V25.1082H129.344V13.7626H127.318V10.7715H129.344V9.73865C129.344 6.62105 131.35 5.09961 134.046 5.09961C134.995 5.09961 135.939 5.22799 136.853 5.48284L136.154 8.46823C135.74 8.33602 135.309 8.26703 134.876 8.2632C133.711 8.2632 133.318 8.83805 133.318 9.79614V10.7542H136.163V13.7626Z" fill="#121212"/>
<path d="M137.51 17.9919C137.51 13.5502 140.215 10.584 144.563 10.584C148.911 10.584 151.611 13.5502 151.611 17.9919C151.611 22.4336 148.905 25.3806 144.556 25.3806C140.206 25.3806 137.51 22.4048 137.51 17.9919ZM147.577 17.9631C147.577 15.4625 146.552 13.6154 144.582 13.6154C142.613 13.6154 141.551 15.4625 141.551 17.9631C141.551 20.4637 142.576 22.3013 144.582 22.3013C146.589 22.3013 147.587 20.4676 147.587 17.9631H147.577Z" fill="#121212"/>
<path d="M154.217 10.7713H158.072V13.2623H158.22C158.743 11.4898 160.059 10.5566 161.669 10.5566C162.088 10.5586 162.508 10.6065 162.918 10.6965V14.2223C162.37 14.0805 161.807 14.0096 161.24 14.0096C159.486 14.0096 158.199 15.2206 158.199 16.9854V25.0927H154.217V10.7713Z" fill="#121212"/>
<path d="M164.197 26.7909L167.874 26.2946C168.199 27.0611 169.087 27.8276 170.84 27.8276C172.593 27.8276 173.825 27.0611 173.825 25.1871V22.5639H173.659C173.136 23.7481 171.857 24.8958 169.571 24.8958C166.343 24.8958 163.758 22.675 163.758 17.9076C163.758 13.1402 166.417 10.584 169.562 10.584C171.959 10.584 173.126 12.0115 173.659 13.1766H173.806V10.7699H177.754V25.2407C177.754 28.8144 174.843 30.6807 170.746 30.6807C166.883 30.6807 164.672 28.9447 164.197 26.7909ZM173.839 17.8884C173.839 15.3782 172.756 13.7457 170.825 13.7457C168.893 13.7457 167.811 15.453 167.811 17.8884C167.811 20.3239 168.874 21.9124 170.825 21.9124C172.743 21.9105 173.839 20.4178 173.839 17.8884Z" fill="#121212"/>
<path d="M180.354 18.0015C180.354 13.579 183.088 10.584 187.305 10.584C191.094 10.584 194.041 12.9907 194.041 17.8654V18.9576H184.282C184.282 21.0942 185.542 22.4067 187.539 22.4067C188.863 22.4067 189.888 21.8319 190.291 20.7454L193.966 20.9869C193.406 23.6465 191.019 25.373 187.472 25.373C183.05 25.3806 180.354 22.5447 180.354 18.0015ZM190.3 16.4896C190.291 14.7823 189.097 13.5502 187.371 13.5502C185.709 13.5157 184.33 14.8283 184.282 16.4896H190.3Z" fill="#121212"/>
</g>
<path d="M16.2848 0.574219C7.60673 0.574219 0.572266 7.60868 0.572266 16.2868V31.9994H16.2848C24.9624 31.9994 31.9974 24.9649 31.9974 16.2868C31.9974 7.60868 24.9624 0.574219 16.2848 0.574219Z" fill="#FF4D00"/>
<path d="M16.2893 5.93555C10.572 5.93555 5.9375 10.57 5.9375 16.2874V26.6392H16.2893C22.0063 26.6392 26.6411 22.0047 26.6411 16.2874C26.6411 10.57 22.0063 5.93555 16.2893 5.93555Z" fill="#FF993B"/>
<path d="M16.2878 12.0723C13.9596 12.0723 12.0723 13.9596 12.0723 16.2878V20.5034H16.2878C18.6159 20.5034 20.5034 18.6161 20.5034 16.2878C20.5034 13.9596 18.6159 12.0723 16.2878 12.0723Z" fill="white"/>
</g>
<defs>
<clipPath id="clip0_1_9">
<rect width="195" height="32" fill="white"/>
</clipPath>
</defs>
</svg>